<?xml version="1.0" encoding="utf-8"?>
<!-- Generator: Adobe Illustrator 15.0.2, SVG Export Plug-In . SVG Version: 6.00 Build 0)  -->
<!DOCTYPE svg PUBLIC "-//W3C//DTD SVG 1.1//EN" "http://www.w3.org/Graphics/SVG/1.1/DTD/svg11.dtd">
<svg version="1.1" id="レイヤー_1" xmlns="http://www.w3.org/2000/svg" xmlns:xlink="http://www.w3.org/1999/xlink" x="0px"
	 y="0px" width="1296.949px" height="396.039px" viewBox="0 0 1296.949 396.039" enable-background="new 0 0 1296.949 396.039"
	 xml:space="preserve">
<path fill="#C8E4FF" d="M171.783,174.775c-92.383,21.826-111.79,12.003-111.79,12.003s-22.124,19.741-10.4,38.598
	c11.726,18.857,32.882,16.265,37.705,16.637c4.825,0.37,56.397-12.852,56.397-12.852s35.709-26.308,61.246-37.288
	c25.537-10.979,14.093-22.939,14.093-22.939c-2.764-0.416-5.562-0.609-8.455-0.609C199.945,168.323,188.02,170.939,171.783,174.775"
	/>
<path fill="none" d="M171.783,174.775c-92.373,21.864-111.79,12.003-111.79,12.003s-22.124,19.741-10.4,38.598
	c11.726,18.857,32.882,16.265,37.705,16.637c4.825,0.37,56.397-12.852,56.397-12.852s35.709-26.308,61.246-37.288
	c25.537-10.979,14.093-22.939,14.093-22.939c-2.755-0.414-5.548-0.606-8.438-0.606C199.923,168.325,187.931,170.954,171.783,174.775
	"/>
<path fill="#FFFFFF" d="M65.775,133.281c-25.192,20.832-45.356,39.263-40.377,69.97c8.452,52.109,62.882,38.726,62.882,38.726
	c-38.821,0.81-14.354-40.006,80.098-110.104c88.077-65.368,43.67-115.491,43.67-115.491
	C153.044,70.979,65.775,133.281,65.775,133.281"/>
<path fill="#FFFFFF" d="M131.724,241.686c-31.334,35.079-18.86,70.981-18.86,70.981l0.088,0.048
	c9.797,32.834,43.522,47.157,43.522,47.157c-54.126-77.964,97.956-120.143,94.703-164.278
	c-1.872-23.947-34.458-26.967-34.458-26.967C236.318,179.357,175.891,192.239,131.724,241.686"/>
<path fill="none" d="M131.724,241.686c-31.334,35.079-18.86,70.981-18.86,70.981l0.088,0.048
	c9.797,32.834,43.522,47.157,43.522,47.157c-54.126-77.964,94.038-118.409,94.703-164.278
	c-0.909-24.271-34.458-26.967-34.458-26.967C236.318,179.357,175.891,192.239,131.724,241.686"/>
<g>
	<g>
		<path id="SVGID_3_" fill="#FFFFFF" d="M131.724,241.686c-31.334,35.079-18.86,70.981-18.86,70.981l0.088,0.048
			c9.797,32.834,43.522,47.157,43.522,47.157c-100.023-58.503,51.335-144.158,70.899-158.588
			c18.062-13.321,8.794-24.473,7.868-25.508c-9.276-6.085-18.522-7.149-18.522-7.149
			C236.318,179.357,175.891,192.239,131.724,241.686"/>
	</g>
</g>
<path id="_x3C_スライス_x3E_" fill="none" d="M-245.804,649.205L-245.804,649.205L-245.804,649.205z"/>
<g>
	<path fill="#FFFFFF" d="M371.667,275.138c-9.111-2.928-17.651-7.888-25.62-14.884c-4.392-3.904-6.588-8.212-6.588-12.932
		c0-3.74,1.38-7.034,4.148-9.883c2.764-2.844,6.1-4.27,10.004-4.27c3.088,0,5.855,0.976,8.296,2.928
		c6.504,5.368,12.848,9.272,19.032,11.712c6.18,2.44,13.5,3.66,21.96,3.66c9.107,0,16.958-2.032,23.546-6.1
		c6.588-4.064,9.882-9.108,9.882-15.128c0-7.32-3.256-13.055-9.76-17.202c-6.508-4.148-16.836-7.278-30.988-9.395
		c-35.624-5.204-53.436-21.796-53.436-49.776c0-10.248,2.684-19.154,8.052-26.718s12.688-13.336,21.96-17.324
		c9.271-3.984,19.6-5.978,30.988-5.978c10.248,0,19.886,1.548,28.914,4.636c9.027,3.092,16.55,7.16,22.569,12.2
		c4.717,3.744,7.076,8.052,7.076,12.932c0,3.744-1.384,7.038-4.147,9.882c-2.769,2.848-6.021,4.27-9.761,4.27
		c-2.439,0-4.636-0.732-6.588-2.196c-4.231-3.416-10.126-6.546-17.689-9.394c-7.564-2.844-14.358-4.27-20.374-4.27
		c-10.248,0-18.179,1.914-23.79,5.734c-5.612,3.824-8.418,8.826-8.418,15.006c0,6.996,2.886,12.284,8.662,15.86
		c5.771,3.58,14.842,6.508,27.205,8.784c13.988,2.44,25.171,5.574,33.551,9.394c8.376,3.824,14.678,9.028,18.91,15.616
		c4.228,6.588,6.344,15.334,6.344,26.23c0,10.248-2.89,19.237-8.662,26.962c-5.776,7.728-13.462,13.664-23.058,17.812
		c-9.601,4.148-19.929,6.223-30.988,6.223C391.187,279.531,380.775,278.066,371.667,275.138z"/>
	<path fill="#FFFFFF" d="M658.119,263.915c0,4.231-1.384,7.686-4.147,10.37c-2.768,2.684-5.94,4.025-9.517,4.025
		c-2.928,0-5.573-0.896-7.93-2.684c-2.359-1.788-4.189-4.229-5.49-7.32l-12.688-29.523h-72.712l-12.688,29.768
		c-1.14,3.092-2.89,5.49-5.246,7.198c-2.359,1.708-4.922,2.562-7.686,2.562c-4.232,0-7.442-1.14-9.638-3.416
		c-2.196-2.275-3.294-5.368-3.294-9.271c0-1.464,0.243-3.008,0.731-4.636l60.756-145.913c1.301-3.252,3.252-5.772,5.856-7.564
		c2.6-1.788,5.528-2.52,8.784-2.196c2.928,0,5.649,0.854,8.174,2.562c2.52,1.708,4.35,4.11,5.49,7.198l60.023,142.984
		C657.712,260.175,658.119,262.127,658.119,263.915z M557.592,210.722h48.8l-24.645-57.096L557.592,210.722z"/>
	<path fill="#FFFFFF" d="M842.338,110.195c2.44,2.604,3.66,5.856,3.66,9.76v142.252c0,4.231-1.426,7.77-4.271,10.614
		c-2.848,2.848-6.386,4.27-10.613,4.27c-2.28,0-4.515-0.366-6.71-1.098c-2.196-0.732-3.782-1.746-4.758-3.051l-89.549-113.704
		v104.188c0,3.904-1.262,7.16-3.781,9.76c-2.524,2.604-5.818,3.904-9.883,3.904c-3.903,0-7.075-1.3-9.516-3.904
		c-2.44-2.6-3.66-5.855-3.66-9.76V121.175c0-4.228,1.422-7.766,4.271-10.614c2.844-2.844,6.382-4.27,10.613-4.27
		c2.44,0,4.839,0.488,7.198,1.464c2.356,0.976,4.106,2.28,5.246,3.904l88.816,113.216v-104.92c0-3.904,1.258-7.156,3.781-9.76
		c2.521-2.6,5.734-3.904,9.639-3.904C836.725,106.291,839.898,107.594,842.338,110.195z"/>
	<path fill="#FFFFFF" d="M1043.39,189.129c2.764,2.848,4.147,6.386,4.147,10.613v51.729c0,5.696-2.523,10.088-7.563,13.176
		c-15.944,9.924-33.429,14.885-52.46,14.885c-16.104,0-30.988-3.942-44.652-11.834c-13.664-7.889-24.483-18.545-32.452-31.965
		c-7.972-13.42-11.956-28.098-11.956-44.042c0-15.94,3.984-30.622,11.956-44.042c7.969-13.42,18.788-24.072,32.452-31.964
		c13.664-7.888,28.548-11.834,44.652-11.834c16.104,0,30.092,3.256,41.968,9.76c2.439,1.304,4.27,3.012,5.49,5.124
		c1.22,2.116,1.83,4.392,1.83,6.832c0,4.068-1.343,7.606-4.026,10.614c-2.684,3.012-5.979,4.514-9.882,4.514
		c-2.44,0-5.124-0.648-8.052-1.952c-8.784-3.74-17.896-5.612-27.328-5.612c-10.412,0-20.009,2.646-28.792,7.93
		c-8.784,5.288-15.738,12.406-20.862,21.35c-5.124,8.948-7.686,18.708-7.686,29.28c0,10.576,2.562,20.335,7.686,29.28
		c5.124,8.948,12.078,16.066,20.862,21.351c8.783,5.287,18.38,7.93,28.792,7.93c4.552,0,9.432-0.404,14.64-1.22
		c5.204-0.812,9.76-1.868,13.664-3.173v-31.72h-22.936c-4.232,0-7.771-1.38-10.614-4.148c-2.849-2.764-4.271-6.26-4.271-10.491
		c0-4.228,1.422-7.724,4.271-10.492c2.844-2.764,6.382-4.148,10.614-4.148h40.016
		C1037.126,184.859,1040.622,186.284,1043.39,189.129z"/>
	<path fill="#FFFFFF" d="M1252.498,235.976c-7.16,13.42-17.042,24.034-29.646,31.842c-12.607,7.809-26.802,11.713-42.578,11.713
		c-15.779,0-29.974-3.904-42.577-11.713c-12.608-7.808-22.448-18.422-29.524-31.842s-10.614-28.182-10.614-44.286
		s3.538-30.866,10.614-44.286s16.916-24.034,29.524-31.842c12.604-7.808,26.798-11.712,42.577-11.712
		c15.776,0,29.971,3.904,42.578,11.712c12.604,7.808,22.486,18.422,29.646,31.842c7.156,13.42,10.735,28.182,10.735,44.286
		S1259.654,222.556,1252.498,235.976z M1224.926,162.045c-4.392-8.864-10.492-15.898-18.3-21.106
		c-7.809-5.204-16.592-7.808-26.353-7.808c-9.924,0-18.749,2.562-26.474,7.686c-7.728,5.124-13.748,12.162-18.056,21.106
		c-4.312,8.948-6.466,18.872-6.466,29.768c0,10.9,2.153,20.824,6.466,29.768c4.308,8.948,10.328,15.981,18.056,21.105
		c7.725,5.124,16.55,7.687,26.474,7.687c9.761,0,18.544-2.601,26.353-7.809c7.808-5.204,13.908-12.237,18.3-21.105
		c4.392-8.864,6.588-18.746,6.588-29.646C1231.513,180.795,1229.317,170.912,1224.926,162.045z"/>
</g>
</svg>
